<?xml version="1.0" encoding="utf-8"?>
<!-- Generator: Adobe Illustrator 19.0.0, SVG Export Plug-In . SVG Version: 6.00 Build 0)  -->
<svg version="1.1" id="Capa_1" xmlns="http://www.w3.org/2000/svg" xmlns:xlink="http://www.w3.org/1999/xlink" x="0px" y="0px"
	 viewBox="0 0 1400 980" style="enable-background:new 0 0 1400 980;" xml:space="preserve">
<style type="text/css">
	.st0{fill:#86E8EF;}
	.st1{fill:#FFFFFF;}
	.st2{fill:#FCCE4C;}
	.st3{fill:#E5A21C;}
	.st4{fill:#F9DFBB;}
	.st5{fill:#42181A;}
	.st6{fill:#C97B35;}
	.st7{fill:#F4A240;}
	.st8{fill:#F9D7AF;}
	.st9{fill:none;}
	.st10{fill:#F7D5A4;}
	.st11{fill:#CE8A11;}
	.st12{fill:none;stroke:#FCF4E7;stroke-width:12;stroke-linecap:round;stroke-miterlimit:10;}
</style>
<g id="XMLID_9_">
	<circle id="XMLID_10_" class="st0" cx="697.1" cy="682.4" r="120.4"/>
	<polygon id="XMLID_11_" class="st1" points="791.3,744.5 798.4,741.6 798.4,678.5 791.3,673 791.3,653.7 810.6,653.7 819.6,665.9 
		824.5,743.1 816.4,759 799,764.9 792.3,763.9 	"/>
	<g id="XMLID_142_">
		<polygon id="XMLID_141_" class="st2" points="770.8,652.5 793.8,652.5 793.8,673 771.9,673 		"/>
		<polygon id="XMLID_143_" class="st2" points="770.8,743.1 793.8,743.1 793.8,763.6 771.9,763.6 		"/>
		<path id="XMLID_140_" class="st2" d="M771.9,612.4l-60.2,0.5c0,0-6,27.2-21,30c-14.9,2.8-33.7-12.8-33.7-12.8s-8.2,9.4-14.4,8.3
			c-6.2-1.1-18.2-0.2-18.2-0.2l-4.5-2.5v157.9c0,0,3.4,17.3,19.4,21.8s112.7-1.6,121.5-5.6c8.8-4,9.2-35.4,9.2-35.4L771.9,612.4z"/>
		<rect id="XMLID_139_" x="618.2" y="664.2" class="st3" width="149.2" height="119.2"/>
		<g id="XMLID_144_">
			<path id="XMLID_145_" class="st4" d="M619.3,577c-14-2.5-24.5,20.5-24.5,20.5s-1.2,40.9,0,45s1.1,8.3,13.9,11.1
				c8.8,1.9,10.9-6.1,11.3-11.3v-64.7C619.5,577.3,619.3,577,619.3,577z"/>
			<path id="XMLID_146_" class="st1" d="M758.3,576.7c-10.1-9.6-33.4-0.3-33.4-0.3s-4.3,3.6-7.7-4.5s-28.2-8.5-28.2-8.5
				s-6.8,5.6-8-1.2c-1.2-6.8-33.7-9.3-33.7-9.3s-21,9.6-21.2,20.2c-0.2,8.5-4.5,5.8-6.1,4.5v64.7c0.2-2.3,0-4,0-4s25.5,0.2,27.1-0.3
				s8.7-5.3,8.7-5.3l6,2.3c0,0,8.3,5.1,11,7.3s13.9-0.2,24.5-3.4s14.4-25.9,14.4-25.9l5.7-0.4h22.4l30.2-1.2
				C770,611.3,768.5,586.3,758.3,576.7z"/>
		</g>
		<path id="XMLID_174_" class="st5" d="M800.6,648.3h-25.2v-36.4c0-1-0.4-1.9-0.9-2.7c0.5-2.4,0.9-4.9,0.9-7.4
			c0-19.4-15.8-35.2-35.2-35.2c-6,0-11.7,1.5-16.9,4.3c-6.6-9-17-14.4-28.4-14.4c-3.6,0-7.1,0.5-10.5,1.6
			c-7.1-7.5-16.9-11.7-27.3-11.7c-16.1,0-30.4,10.4-35.6,25.3c-0.7-0.1-1.4-0.1-2.1-0.1c-16.7,0-30.2,13.5-30.2,30.2v40.3
			c0,8.3,6.8,15.1,15.1,15.1h5c1.8,0,3.5-0.4,5-0.9v21.1V783v5c0,16.7,13.5,30.2,30.2,30.2h100.6c16.7,0,30.2-13.5,30.2-30.2v-5
			v-13.9h25.2c13.9,0,25.2-11.3,25.2-25.2v-70.5C825.7,659.6,814.4,648.3,800.6,648.3z M735.1,778H715V677.3
			c0-5.6,4.5-10.1,10.1-10.1c5.6,0,10.1,4.5,10.1,10.1V778z M725.1,657.2c-6,0-11.4,2.7-15.1,7c-3.7-4.2-9.1-7-15.1-7
			c-6,0-11.4,2.7-15.1,7c-3.7-4.2-9.1-7-15.1-7c-6,0-11.4,2.7-15.1,7c-3.7-4.2-9.1-7-15.1-7c-3.7,0-7.1,1.1-10.1,2.8v-17.9v-0.6
			c1.8,0.4,3.6,0.6,5.4,0.6h9.9c5.7,0,11.1-1.9,15.5-5.4c6.6,6.6,15.6,10.5,25,10.5c17.7,0,32.4-13.1,34.9-30.2h50.3v36.4v6.7
			c-3-1.7-6.4-2.8-10.1-2.8c-6,0-11.4,2.7-15.1,7C736.5,659.9,731.1,657.2,725.1,657.2z M704.9,778h-20.1V677.3
			c0-5.6,4.5-10.1,10.1-10.1s10.1,4.5,10.1,10.1V778z M674.7,778h-20.1V677.3c0-5.6,4.5-10.1,10.1-10.1c5.6,0,10.1,4.5,10.1,10.1
			V778z M644.6,778h-20.1V677.3c0-5.6,4.5-10.1,10.1-10.1c5.6,0,10.1,4.5,10.1,10.1V778z M745.2,677.3c0-5.6,4.5-10.1,10.1-10.1
			s10.1,4.5,10.1,10.1v66.6V764V778h-20.1V677.3z M775.4,678.5h15.1c2.8,0,5,2.3,5,5v50.3c0,2.8-2.3,5-5,5h-15.1V678.5z
			 M609.3,647.1h-5c-2.8,0-5-2.3-5-5v-40.3c0-11.1,9-20.1,20.1-20.1c1.4,0,2.9,0.2,4.6,0.6c1.3,0.3,2.7,0.1,3.8-0.6
			c1.1-0.7,1.9-1.9,2.2-3.2c2.7-12.7,14.1-21.9,27.1-21.9c8.5,0,16.5,3.9,21.8,10.6c1.4,1.8,3.9,2.4,6,1.5c3.2-1.4,6.5-2.1,10-2.1
			c9.5,0,18,5.2,22.4,13.7c0.7,1.3,1.9,2.3,3.4,2.6c1.5,0.3,3,0,4.2-0.9c4.5-3.5,9.8-5.3,15.4-5.3c13.9,0,25.2,11.3,25.2,25.2
			c0,1.7-0.2,3.4-0.5,5h-54.5c-2.8,0-5,2.2-5,5c0,13.9-11.3,25.2-25.2,25.2c-8.1,0-15.8-4-20.5-10.7c-0.9-1.3-2.4-2.1-4-2.1
			c-1.7,0-3.1,0.7-4.1,1.9c-2.9,3.7-7.2,5.9-11.8,5.9h-9.9c-2.7,0-5.3-0.8-7.8-2.3c-1.6-0.9-3.5-1-5.1-0.1c-1.6,0.9-2.6,2.6-2.6,4.4
			v8C614.4,644.9,612.1,647.1,609.3,647.1z M745.2,808.2H644.6c-11.1,0-20.1-9-20.1-20.1h25.2h30.2H710h30.2h25.2
			C765.3,799.1,756.3,808.2,745.2,808.2z M815.7,743.9c0,8.3-6.8,15.1-15.1,15.1h-25.2v-10.1h15.1c8.3,0,15.1-6.8,15.1-15.1v-50.3
			c0-8.3-6.8-15.1-15.1-15.1h-15.1v-10.1h25.2c8.3,0,15.1,6.8,15.1,15.1V743.9z"/>
	</g>
</g>
<g id="XMLID_16_">
	<circle id="XMLID_1_" class="st0" cx="1038.3" cy="682.4" r="103.6"/>
	<g id="XMLID_94_">
		<g id="XMLID_123_">
			<path id="XMLID_132_" class="st6" d="M996.8,610.1l-5.5,0.1c0,0-3.6-0.1-8-1.3h-13.7c0,0,2.2,36.6,16.2,59.8
				c14.9,24.6,15.4,118.9,15.4,118.9l-4,20.9l9.2,5.4l31.7,0c-7.2-73.1-26.9-54.8-38.1-158.9C998.4,638.2,997.3,623.4,996.8,610.1z"
				/>
			<path id="XMLID_147_" class="st7" d="M1099.6,608.8l-23,0.3l-79.7,0.9c0.5,13.3,1.6,28.2,3.4,44.8
				c11.1,104.1,30.8,85.8,38.1,158.9l15.7,0c0,0,32.9,2.7,19-26.3c-13.9-29,3.3-94,10.8-111.4
				C1091.3,658.6,1099.6,608.8,1099.6,608.8z"/>
			<path id="XMLID_160_" class="st4" d="M996.8,608.8h102.8l-1.3-63.9c-1.2-0.2-63.6-0.1-98.7-0.1
				C997.2,560.4,995.8,581.2,996.8,608.8z"/>
			<path id="XMLID_161_" class="st8" d="M999.6,544.9c-13.8,0-23.4,0.1-23.4,0.1s-9.7,40.8-6.5,52.7c1.8,6.6,8.2,9.7,13.7,11.2h13.4
				C995.8,581.2,997.2,560.4,999.6,544.9z"/>
			<path id="XMLID_162_" class="st4" d="M996.8,610.1l79.7-0.9l23-0.3H996.8C996.8,609.2,996.8,609.7,996.8,610.1z"/>
			<path id="XMLID_163_" class="st4" d="M996.8,610.1c0-0.4,0-0.8,0-1.3h-13.4c4.3,1.2,8,1.3,8,1.3L996.8,610.1z"/>
		</g>
		<path id="XMLID_148_" class="st1" d="M1028.5,517.7c-0.7,0-16.2,5.5-16.2,5.5s-14.5,2-15.1,2.2c-0.7,0.2-18.7,6.9-18.7,6.9
			l-3.9,10.7l19.1,2.6l5.2,17.8l-0.7,26.1l1.5,26.1c0,0,11,7.9,15.8,1.8s5-16,5-16l2.4-27.7l-1.3-18.9v-10l8.3,0.4l10.1,0.9v30.2
			c0,0,2.9,18.1,17.1,10.4c0,0,6.1-4.4,5-10.4c-1.1-6,0.1-21.2,0.1-21.2v-10.2l35.9,0.1c0,0,2.3-13-5.8-14.3s-16.6-5.5-16.6-5.5
			s-15.3-2-15.4-2c-0.1,0-12.2-4.2-12.9-4.2C1046.9,519.1,1028.5,517.7,1028.5,517.7z"/>
		<g id="XMLID_191_">
			<g id="XMLID_192_">
				<g id="XMLID_194_">
					<path id="XMLID_197_" class="st5" d="M1103.6,544.6c0-11.4-9.3-20.7-20.7-20.7c-0.6,0-1.3,0-2,0.1c-3.8-3.4-8.7-5.4-13.8-5.4
						c-2.1,0-4.2,0.3-6.3,1c-3.9-4-9.2-6.3-14.8-6.3c-3.7,0-7.3,1-10.5,2.9c-3.2-1.9-6.8-2.9-10.5-2.9c-5.7,0-11,2.3-14.8,6.3
						c-2-0.7-4.1-1-6.3-1c-5.1,0-10,1.9-13.8,5.4c-0.7-0.1-1.3-0.1-2-0.1c-11.3,0-20.5,9-20.7,20.2c-0.5,2.7-3.1,18.9-2.7,42.7
						c0.4,23.6,4,59.6,18.9,96.6c9.1,22.5,14,42.9,15.1,62.4c1,17.2-0.9,34-6,52.9c-1.3,4.7-0.3,9.7,2.6,13.5c2.9,3.8,7.3,6,12.2,6
						h56.2c4.8,0,9.2-2.2,12.2-6c3-3.9,3.9-8.8,2.6-13.5c-5.1-18.9-7-35.7-6-52.9c1.1-19.4,6.1-39.8,15.1-62.4
						c14.9-37,18.5-73,18.9-96.6C1106.6,564.2,1104.3,548.4,1103.6,544.6z M988,533.8c0.8,0,1.6,0.1,2.5,0.3c1.8,0.4,3.8-0.2,5-1.6
						c2.1-2.5,5.1-4,8.3-4c1.8,0,3.6,0.5,5.3,1.5c2.3,1.3,5.2,0.6,6.6-1.7c2-3.2,5.4-5.1,9.2-5.1c2.6,0,5.2,1,7.2,2.8
						c1.9,1.7,4.7,1.7,6.6,0c2-1.8,4.6-2.8,7.2-2.8c3.7,0,7.1,1.9,9.2,5.1c1.4,2.2,4.3,3,6.6,1.7c1.7-1,3.5-1.5,5.3-1.5
						c3.2,0,6.2,1.4,8.3,4c1.2,1.4,3.1,2.1,5,1.6c1-0.2,1.8-0.3,2.5-0.3c4.2,0,7.9,2.4,9.7,5.9h-30.7c-2.7,0-4.9,2.2-4.9,4.9l0,31.6
						c0,3.1-2.5,5.6-5.6,5.6s-5.6-2.5-5.6-5.6l0-31.3c0-3.9-3-5.3-4.9-5.3h-21.1c-2.7,0-4.9,2.2-4.9,4.9v63.2c0,3.1-2.5,5.6-5.6,5.6
						c-3.1,0-5.6-2.5-5.6-5.6v-63.2c0-2.7-2.2-4.9-4.9-4.9h-20.2C980.2,536.2,983.8,533.8,988,533.8z M976.5,549.6h17.2v53.3h-18.4
						C973.4,577.4,975.4,557.7,976.5,549.6z M1078.2,679.8c-17.8,44.1-20.6,80.5-9.5,121.5c0.5,1.7,0.1,3.5-1,4.9
						c-0.6,0.8-2,2.1-4.3,2.1h-56.2c-2.3,0-3.7-1.3-4.3-2.1c-1.1-1.4-1.4-3.2-1-4.9c11.1-41.1,8.3-77.4-9.5-121.5
						c-9.4-23.5-14.2-46.7-16.5-67h18.3c2.1,6.1,7.9,10.5,14.7,10.5c6.8,0,12.6-4.4,14.7-10.5h70.9
						C1092.5,633.1,1087.7,656.3,1078.2,679.8z M1095.6,602.9h-71v-53.3h11.2c0,6.8,0,19.1,0,26.7c0,8.5,6.9,15.5,15.5,15.5
						s15.5-6.9,15.5-15.5l0-26.7h27.6C1095.5,557.7,1097.5,577.4,1095.6,602.9z"/>
					<path id="XMLID_173_" class="st1" d="M1049.6,718c0.4,0.1,0.7,0.1,1.1,0.1c2.3,0,4.3-1.6,4.8-3.9c2.8-12.3,6.8-25,12.3-38.7
						c1.8-4.4,3.4-8.9,4.9-13.5c0.9-2.6-0.6-5.4-3.1-6.2c-2.6-0.9-5.4,0.6-6.2,3.1c-1.4,4.4-3,8.7-4.7,12.9
						c-5.7,14.2-9.9,27.4-12.8,40.2C1045.3,714.8,1046.9,717.4,1049.6,718z"/>
					<path id="XMLID_172_" class="st1" d="M1072.8,644.3c0.4,0.1,0.7,0.1,1.1,0.1c2.3,0,4.3-1.6,4.8-3.8c0.8-3.5,1.5-7.1,2.2-10.7
						c0.5-2.7-1.3-5.3-4-5.7c-2.7-0.5-5.3,1.3-5.7,4c-0.6,3.5-1.3,6.9-2.1,10.3C1068.5,641,1070.2,643.7,1072.8,644.3z"/>
				</g>
			</g>
		</g>
	</g>
</g>
<g id="XMLID_21_">
	<circle id="XMLID_14_" class="st0" cx="340.6" cy="309.7" r="118.3"/>
	<g id="XMLID_135_">
		<g id="XMLID_76_">
			<path id="XMLID_77_" class="st9" d="M401.2,246.8l5.6,0.4l-2.4-1.4c0,0-6.5-2.1-7.1-1.9c-0.6,0.2-15.3-0.6-15.3-0.6l-2.8,1.2
				l0.1,0L401.2,246.8z"/>
			<path id="XMLID_78_" class="st9" d="M277.5,244.5l12.4-2.1l-0.8-0.2C289.1,242.2,280.9,243.6,277.5,244.5z"/>
			<path id="XMLID_79_" class="st9" d="M363.4,246.7c-1.2-0.1-2.5-0.1-3.6-0.2l2.8,0.3L363.4,246.7z"/>
			<polygon id="XMLID_80_" class="st9" points="340.6,242.2 329.5,244.2 349.6,245.6 			"/>
			<path id="XMLID_81_" class="st9" d="M302.7,244.8l-3.3-0.6l4.5,1.1C303.1,245,302.7,244.8,302.7,244.8z"/>
			<path id="XMLID_82_" class="st7" d="M406.7,247.3l-5.6-0.4l-22-2.3l-0.1,0l-5.4,2.3H367c0,0-1.6-0.1-3.6-0.2l-0.8,0.1l-2.8-0.3
				c-1.6-0.1-2.9-0.1-3.2-0.1c-1,0-6.9-0.8-6.9-0.8l-20.1-1.5l-2.9,0.8c0,0-13.8,1.7-17,1.7c-2.1,0-4.4-0.8-5.8-1.4l-4.5-1.1
				l-5.5-0.9l-3.4-0.8c-0.1,24.8,1.8,50.3,8,70.1c14.3,45.4,16.7,109.9,17.1,135h25c0,0,33.7,0,35,0s9.2-4.2,9.2-4.2
				s1.3-29.7,1.3-31c0-1.3,2.9-26.4,2.9-26.4l5-31.4l5-26.4l16.8-68.3v-11.9h-8L406.7,247.3z"/>
			<path id="XMLID_83_" class="st6" d="M290.5,242.6l-0.6-0.1l-12.4,2.1c-0.8,0.2-1.3,0.4-1.4,0.5c-0.4,0.6-8.6,2.9-8.6,2.9l-4-1.1
				l-3.4,13l17.8,66.2l15.9,74.2c0,0,2.5,24.7-1.3,34.4c-3.8,9.6,10.9,13,10.9,13h12.1c-0.4-25-2.9-89.6-17.1-135
				C292.3,292.9,290.3,267.4,290.5,242.6z"/>
			<path id="XMLID_84_" class="st10" d="M277.5,244.5c3.4-0.9,11.6-2.3,11.6-2.3l0.8,0.2l0.6-0.1c0.1-15.7,1-31.1,2.2-44.7l-17.9,0
				h-14.7l1.3,48.6l2.1,0.6l0,0L277.5,244.5z"/>
			<path id="XMLID_85_" class="st4" d="M416,197.6l-13.4-1.5l-35.8,1.3l-74.1,0.2c-1.2,13.6-2.1,29-2.2,44.7l0.5-0.1l8.4,2l3.3,0.6
				c0,0,0.4,0.2,1.2,0.5l5.8,1.4l19.9-2.5l11.1-1.9l9,3.4l10.2,0.9c1.2,0,2.5,0.1,3.6,0.2l15.7-2.2l2.8-1.2c0,0,14.7,0.8,15.3,0.6
				c0.6-0.2,7.1,1.9,7.1,1.9l2.4,1.4l9.1,0.7l3.4-25.1c0,0-0.8-15.5,0-16.1C420,206,416,197.6,416,197.6z"/>
			<polygon id="XMLID_86_" class="st4" points="407.9,247.9 415.8,247.9 406.7,247.3 			"/>
			<path id="XMLID_87_" class="st4" d="M303.8,245.3c1.4,0.6,3.7,1.4,5.8,1.4L303.8,245.3z"/>
			<path id="XMLID_88_" class="st4" d="M373.7,246.9l5.4-2.3l-15.7,2.2c2,0.1,3.6,0.2,3.6,0.2H373.7z"/>
			<path id="XMLID_89_" class="st4" d="M276.1,245c0.1-0.1,0.6-0.3,1.4-0.5l-14,2.3l0,0l4,1.1C267.5,247.9,275.6,245.6,276.1,245z"
				/>
			<path id="XMLID_90_" class="st4" d="M293.9,243.3l5.5,0.9l-8.4-2l-0.5,0.1c0,0.1,0,0.2,0,0.2L293.9,243.3z"/>
			<path id="XMLID_91_" class="st4" d="M290.5,242.6c0-0.1,0-0.2,0-0.2l-0.6,0.1L290.5,242.6z"/>
			<path id="XMLID_92_" class="st4" d="M329.5,244.2l-19.9,2.5c3.1,0,17-1.7,17-1.7L329.5,244.2z"/>
			<path id="XMLID_93_" class="st4" d="M359.8,246.6l-10.2-0.9c0,0,5.9,0.8,6.9,0.8C356.9,246.5,358.2,246.5,359.8,246.6z"/>
		</g>
		<path id="XMLID_72_" class="st1" d="M259.1,199.1h17.2l8,5.9l5.9,5.5l2.4,5.4h7.1l2.9-5.4l1.7-9.1l5-2.3l13.8-1.7l9.6,3.9l2.5,5.3
			v98.9l2.1,5.4l8.8-1.7l6.7-2v-13.5v-90.5l6.1-5.9h7.8l5,1.7l4.2,6.3v44.8l3.4,4h2.5c0,0,5.4-1.5,6.7,0c1.3,1.5,5.4,0,5.4,0
			l2.1-4.8v-48l3.4-3.9h8.4v-13l-8.8-8.8h-6.7l-5.9,2.5l-8.8-7h-5.4l-5,3.2l-5.9-0.4l-7.1-2.8l-8-3.1h-7l-12.3,3.1l-5.9,2.3
			l-9.6-5.4l-8.8,3.1l-6.2,7.4h-4.7l-13.8-2.1l-6.7,4.2l-2.1,5.4c0,0,0.4,4.2,0,5.4c-0.4,1.3-2.9,3.8-2.9,3.8L259.1,199.1z"/>
		<g id="XMLID_2_">
			<g id="XMLID_265_">
				<path id="XMLID_267_" class="st5" d="M421.6,194.8c-1.8-1.9-4.3-2.9-6.9-2.9h-0.3v-0.3c0-10.9-8.9-19.8-19.8-19.8
					c-2.8,0-5.6,0.6-8.1,1.8c-4.6-4.4-10.6-6.8-17-6.8c-3.2,0-6.4,0.6-9.4,1.9c-6-4.5-13.3-6.9-20.8-6.9c-7.5,0-14.8,2.4-20.8,6.9
					c-3-1.3-6.1-1.9-9.4-1.9c-6.4,0-12.4,2.4-17,6.8c-2.6-1.2-5.3-1.8-8.1-1.8c-10.9,0-19.8,8.9-19.8,19.8v0.3h-0.3
					c-2.6,0-5.1,1-6.9,2.9c-1.9,1.9-2.9,4.3-2.8,7c0.5,59.7,9.2,91.2,17.7,121.5c8.1,29.1,16.5,59.2,17.4,115
					c0.1,8,6.7,14.6,14.7,14.6h70.6c8,0,14.6-6.5,14.7-14.6c0.9-55.8,9.3-85.9,17.4-115c8.5-30.4,17.3-61.8,17.7-121.5
					C424.4,199.2,423.4,196.7,421.6,194.8z M263.6,201.5c0.1-0.1,0.1-0.1,0.2-0.1l10.1,0c2.9,0,5.3,2.4,5.3,5.3
					c0,8.1,6.6,14.8,14.8,14.8s14.8-6.6,14.8-14.8c0-2.9,2.4-5.3,5.3-5.3h10.1c3,0,5.4,2.4,5.4,5.4v31.9c-1.5,0.5-2.7,1-3.9,1.5
					c-2.8,1.2-5,2.1-9.9,2.1s-7.1-0.9-9.9-2.1c-3.2-1.4-6.8-2.9-13.6-2.9c-6.8,0-10.4,1.5-13.6,2.9c-2.8,1.2-5,2.1-9.9,2.1
					c-1.3,0-2.4-0.1-3.5-0.2c-1-11.8-1.7-25.1-1.8-40.3C263.5,201.6,263.5,201.5,263.6,201.5L263.6,201.5z M397.6,320.8
					c-8.3,29.7-16.9,60.3-17.7,117.4c0,2.9-2.4,5.3-5.3,5.3h-70.6c-2.9,0-5.3-2.4-5.3-5.3c-0.9-57.1-9.5-87.7-17.7-117.4
					c-5.8-20.8-11.4-40.8-14.6-69.2c0.8,0,1.6,0.1,2.5,0.1c6.8,0,10.4-1.5,13.6-2.9c2.8-1.2,5-2.1,9.9-2.1c4.9,0,7.1,0.9,9.9,2.1
					c3.2,1.4,6.8,2.9,13.6,2.9c6.8,0,10.4-1.5,13.6-2.9c0,0,0.1,0,0.1-0.1v53.6c0,8.1,6.6,14.8,14.8,14.8c8.1,0,14.8-6.6,14.8-14.8
					v-10.1c0-2.6-2.1-4.7-4.7-4.7c-2.6,0-4.7,2.1-4.7,4.7v10.1c0,2.9-2.4,5.3-5.3,5.3c-2.9,0-5.3-2.4-5.3-5.3v-95.6
					c0-8.2-6.6-14.8-14.8-14.8h-10.1c-8.1,0-14.7,6.6-14.7,14.8c0,2.9-2.4,5.3-5.3,5.3c-2.9,0-5.3-2.4-5.3-5.3
					c0-8.1-6.6-14.8-14.8-14.8h-0.3v-0.3c0-5.7,4.7-10.4,10.4-10.4c2.2,0,4.4,0.7,6.2,2.1c1,0.8,2.3,1.1,3.5,0.9
					c1.2-0.2,2.4-0.8,3.1-1.8c3-4,7.4-6.2,12.3-6.2c2.6,0,5.2,0.7,7.6,2.1c1.8,1,4,0.8,5.5-0.6c4.7-4.2,10.7-6.6,17-6.6
					s12.3,2.3,17,6.6c1.5,1.4,3.7,1.6,5.5,0.6c2.4-1.4,5-2.1,7.6-2.1c4.9,0,9.3,2.3,12.3,6.2c0.8,1,1.9,1.7,3.1,1.8
					c1.2,0.2,2.5-0.2,3.5-0.9c1.8-1.4,4-2.1,6.2-2.1c5.7,0,10.4,4.7,10.4,10.4v0.3h-0.3c-8.2,0-14.8,6.6-14.8,14.8v30.4
					c0,2.6,2.1,4.7,4.7,4.7c2.6,0,4.7-2.1,4.7-4.7v-30.4c0-2.9,2.4-5.3,5.4-5.3h10c0.1,0,0.2,0,0.2,0.1c0.1,0.1,0.1,0.1,0.1,0.2
					c-0.1,15.2-0.8,28.5-1.8,40.3c-1.1,0.1-2.3,0.2-3.6,0.2c-4.9,0-7.1-0.9-9.9-2.1c-0.2-0.1-0.3-0.1-0.5-0.2v-3
					c0-2.6-2.1-4.7-4.7-4.7c-2.6,0-4.7,2.1-4.7,4.7v5.8c0,0.3,0,0.6,0,0.8v3.4c0,2.9-2.4,5.3-5.3,5.3c-2.9,0-5.3-2.4-5.3-5.3v-40.2
					c0-8.1-6.6-14.8-14.8-14.8c-3.9,0-7.7,1.5-10.4,4.3c-2.8,2.8-4.3,6.5-4.3,10.4l0,39c0,0,0,0.1,0,0.1l0,48.3
					c0,2.6,2.1,4.7,4.7,4.7c2.6,0,4.7-2.1,4.7-4.7l0-42.5c1.2,0.1,2.4,0.2,3.7,0.2c3.1,0,5.5-0.3,7.6-0.8
					c1.7,6.2,7.5,10.9,14.2,10.9c7.1,0,13.1-5.1,14.5-11.8c2.6,0.9,5.8,1.7,10.6,1.7c0.9,0,1.8,0,2.6-0.1
					C409,280,403.4,300,397.6,320.8L397.6,320.8z M362.7,242.2c-1.5,0-2.7-0.1-3.7-0.2l0-35.3c0-1.4,0.6-2.8,1.6-3.8
					c1-1,2.4-1.6,3.8-1.6c2.9,0,5.3,2.4,5.3,5.3v34.5C367.9,241.8,365.9,242.2,362.7,242.2z"/>
				<path id="XMLID_266_" class="st5" d="M364.4,423.3h-50.3c-2.6,0-4.7,2.1-4.7,4.7c0,2.6,2.1,4.7,4.7,4.7h50.3
					c2.6,0,4.7-2.1,4.7-4.7C369.1,425.4,367,423.3,364.4,423.3z"/>
			</g>
		</g>
	</g>
</g>
<g id="XMLID_22_">
	<circle id="XMLID_15_" class="st0" cx="678.7" cy="309.7" r="118.3"/>
	<g id="XMLID_164_">
		<g id="XMLID_98_">
			<path id="XMLID_100_" class="st9" d="M773.8,327.8V361C774.3,354.7,773.8,327.8,773.8,327.8z"/>
			<path id="XMLID_101_" class="st2" d="M765.8,369.1l-12.5,0.5l0.1,15.9c0,0,3-3,16.5-0.3c1.4,0.3,2.6,0.3,3.9,0.2V361
				C773.3,367.3,765.8,369.1,765.8,369.1z"/>
			<path id="XMLID_102_" class="st2" d="M752.9,299.4l0.6,17.4c0,0,6.5-0.5,12.3-0.2c5.8,0.3,8,11.1,8,11.1v-26.6
				C760.5,297.7,752.9,299.4,752.9,299.4z"/>
			<path id="XMLID_103_" class="st1" d="M784,304.6c-3.7-1.5-7.1-2.6-10.2-3.4v26.6c0,0,0.5,26.9,0,33.2v24.4
				c11.1-0.9,17.6-15.6,17.6-15.6l1.1-21.1l-2.1-11.3C790.4,337.5,803.5,312.3,784,304.6z"/>
		</g>
		<g id="XMLID_42_">
			<path id="XMLID_104_" class="st3" d="M621.4,405.1c-1.9-38.4,0-130.7,0-130.7l-0.5-13.4l-14.8-0.3c0,0-1.3,0-3.2-0.3
				c-0.1,7.3-1.1,125.3,0,153.4c1.2,29,29.1,35.2,29.1,35.2h27.2c0.1-10.9,0.2-19.7,0.2-19.7S623.4,443.5,621.4,405.1z"/>
			<path id="XMLID_105_" class="st2" d="M744.2,262.4c-1.3-0.4-63.2,0-63.2,0l-60.1-1.4l0.5,13.4c0,0-1.9,92.3,0,130.7
				s38.1,24.2,38.1,24.2s-0.1,8.8-0.2,19.7H723c28.4-6.1,30.4-27.7,30.4-27.7V261.4C748.6,262.4,744.7,262.5,744.2,262.4z"/>
			<path id="XMLID_106_" class="st4" d="M620.9,260l-0.3-8.8c0,0-16.3-17.4,0-25.8c16.3-8.4,10.5-32.9,44.7-32.9
				c11,0,22-3.2,31.8-7.5c-2.9-2.4-3.6-7.3-3.6-7.3c-5.2-6-14.8-7.1-14.8-7.1c-53.9-18.7-64.8,33.7-64.8,33.7
				c2.5,8.3-7.3,9.3-7.3,9.3c-21.9,0.3-24.9,20.8-24.9,20.8c-1,20.4,14.4,24.9,21.3,25.9c0-0.2,0-0.4,0-0.4H620.9z"/>
			<path id="XMLID_107_" class="st1" d="M765.8,216.8c0,0-12,0-17-3.1s-5.5-6.3-5.5-6.3s-0.7-13.9-17.6-21.9
				c-16.9-8-18.1,0.4-24.5,0.9c-1.7,0.1-3-0.4-4.1-1.3c-9.8,4.3-20.8,7.5-31.8,7.5c-34.2,0-28.4,24.5-44.7,32.9
				c-16.3,8.4,0,25.8,0,25.8l0.3,8.8h132.6v1.4c8.2-1.7,19.2-5.9,22.1-15.9C780.3,229.7,765.8,216.8,765.8,216.8z"/>
			<path id="XMLID_108_" class="st1" d="M620.9,261l0-1h-18c0,0,0,0.1,0,0.4c2,0.3,3.2,0.3,3.2,0.3L620.9,261z"/>
			<path id="XMLID_109_" class="st1" d="M620.9,260l0,1l60.1,1.4c0,0,61.9-0.4,63.2,0c0.5,0.2,4.4,0.1,9.2-0.9V260H620.9z"/>
		</g>
		<g id="XMLID_183_">
			<g id="XMLID_188_">
				<path id="XMLID_193_" class="st5" d="M719.3,452.9H638c-21.1,0-38.4-17.2-38.4-38.4V261.1c0-2.4,2-4.4,4.4-4.4h148.4
					c2.4,0,5.1,2,5.1,4.4v153.4C757.6,435.6,740.4,452.9,719.3,452.9z M608.5,265.5v149c0,16.3,13.2,29.5,29.5,29.5h81.3
					c16.3,0,29.5-13.2,29.5-29.5v-149H608.5z"/>
				<path id="XMLID_63_" class="st5" d="M771.9,387.4h-18.6c-2.4,0-4.4-2-4.4-4.4c0-2.4,2-4.4,4.4-4.4h18.6
					c8.9,0,16.1-7.2,16.1-16.1v-41.4c0-8.9-7.2-16.1-16.1-16.1h-18.6c-2.4,0-4.4-2-4.4-4.4c0-2.4,2-4.4,4.4-4.4h18.6
					c13.7,0,24.9,11.2,24.9,24.9v41.4C796.8,376.2,785.6,387.4,771.9,387.4z"/>
				<g id="XMLID_73_">
					<path id="XMLID_74_" class="st9" d="M769.9,355v-26.5c0-5-4-9-9-9h-7.4V364h7.4C765.9,364,769.9,360,769.9,355z"/>
					<path id="XMLID_95_" class="st5" d="M760.9,311.2h-7.4v8.2h7.4c5,0,9,4,9,9V355c0,5-4,9-9,9h-7.4v8.2h7.4
						c9.5,0,17.2-7.7,17.2-17.2v-26.5C778.1,319,770.4,311.2,760.9,311.2z"/>
				</g>
			</g>
			<path id="XMLID_184_" class="st5" d="M750.7,265.5H606.6c-16,0-28.9-13-28.9-28.9s13-28.9,28.9-28.9h2.1
				c3-26.1,24.8-45.9,51.5-45.9c15.8,0,30.7,7.2,40.5,19.5c4.3-1.8,8.8-2.8,13.3-2.8c17.2,0,31.6,12.5,34.5,29.1h2.2
				c16,0,28.9,13,28.9,28.9S766.7,265.5,750.7,265.5z M606.6,216.5c-11.1,0-20.1,9-20.1,20.1s9,20.1,20.1,20.1h144.1
				c11.1,0,20.1-9,20.1-20.1c0-11.1-9-20.1-20.1-20.1h-6.1c-2.4,0-4.3-1.8-4.4-4.2c-0.7-14-12.2-24.9-26.1-24.9
				c-4.3,0-8.5,1.1-12.6,3.4c-2,1.1-4.5,0.5-5.8-1.4c-8.1-11.7-21.3-18.8-35.5-18.8c-23.3,0-42.2,18.3-43,41.6
				c-0.1,2.4-2,4.3-4.4,4.3H606.6z"/>
		</g>
		<g id="XMLID_43_">
			<g id="XMLID_204_">
				<rect id="XMLID_207_" x="637.6" y="300.2" class="st5" width="8.8" height="107.4"/>
				<rect id="XMLID_206_" x="710.9" y="300.2" class="st5" width="8.8" height="107.4"/>
				<rect id="XMLID_205_" x="674.2" y="300.2" class="st5" width="8.8" height="107.4"/>
			</g>
		</g>
	</g>
</g>
<g id="XMLID_17_">
	<circle id="XMLID_13_" class="st0" cx="340.6" cy="682.4" r="103.6"/>
	<g id="XMLID_165_">
		<g id="XMLID_113_">
			<path id="XMLID_114_" class="st9" d="M317.7,584.7c5.4,1.3,10.2,2.7,13.2,3.5c0.1-0.8,0.2-1.5,0.3-2.3
				C328.3,585.7,323.1,585.2,317.7,584.7z"/>
			<path id="XMLID_115_" class="st9" d="M336.9,612.7l-3.1-23.6c0,0-4.7,0.9,1.2,19.9c1.3,4.1,3.3,6.5,5.7,7.6
				C339.4,615.6,338.1,614.4,336.9,612.7z"/>
			<path id="XMLID_116_" class="st9" d="M331.1,585.9c-0.1,0.8-0.2,1.5-0.3,2.3c1.9,0.5,3,0.9,3,0.9l-0.4-3
				C333.4,586.1,332.6,586,331.1,585.9z"/>
			<path id="XMLID_117_" class="st9" d="M286.6,597.3c1.8-8.6,4.3-16.1,4.3-16.1c-1.8,0.2-3.1,0.6-3.1,0.6L286.6,597.3z"/>
			<path id="XMLID_118_" class="st9" d="M362.3,609L362.3,609c0,0-0.1,0-0.1,0.1C362.2,609,362.3,609,362.3,609z"/>
			<polygon id="XMLID_119_" class="st9" points="363.7,584.8 369.1,584.1 363.7,581.8 			"/>
			<path id="XMLID_120_" class="st3" d="M397.3,580.2L377,583l-6.2,1.8l-1.8-0.7l-5.4,0.7v22.2c0,0-0.5,0.8-1.4,1.9l0,0
				c0,0,0,0-0.1,0.1c-3.5,4.5-12.7,14.1-21.5,7.5c-2.4-1.1-4.4-3.5-5.7-7.6c-5.9-19-1.2-19.9-1.2-19.9l0,0c0,0-1.1-0.3-3-0.9
				c-2.4,19.8-4.3,40.2-5,59.2c4.2-7,9.5-11.2,15.2-11.2c13.7,0,24.7,23.7,24.7,52.9s-11.1,52.9-24.7,52.9c-1.5,0-3-0.3-4.4-0.9
				c1.2,27.2-5.3,54.5-11.3,73.1c12.3,0.4,24.7-2.4,24.7-2.4s27.7,3,32.2-8.3c4.5-11.3-3.5-16.6-3.5-16.6s-1.9-76.1,6.6-94.6
				C393.9,674,397.3,580.2,397.3,580.2z"/>
			<path id="XMLID_121_" class="st11" d="M336.6,741.3c-11.5-4.5-20.3-26.1-20.3-52.1c0-17,3.7-32.1,9.5-41.8
				c0.7-19,2.6-39.5,5-59.2c-2.9-0.8-7.8-2.2-13.2-3.5c-9.1-0.9-19-2-20.9-2.9c-1.8-0.8-4.1-0.8-5.9-0.6c0,0-2.5,7.5-4.3,16.1
				l-0.4,4.7c0,0-0.2,0.1-0.5,0.2c-0.7,4.2-1,8.5-0.7,12c1.2,12.3,5.8,47,5.8,47l7.8,42.5c0,0,9,41.9,7,61.8s-8.2,34.5-8.2,34.5
				s-0.8,6.5,13.5,11.9c4.2,1.6,9.2,2.2,14.2,2.4C331.3,795.7,337.8,768.5,336.6,741.3z"/>
			<path id="XMLID_122_" class="st1" d="M386.4,552.5h-15.6l-7.2,8.5l-1.1-5.4l-1.2,5.4c-0.6-12.1-22.6-10.1-22.6,0s0,19.7,0,19.7
				l-5.1,6.4l0.3,1.9l3.1,23.6c1.2,1.7,2.5,2.9,3.7,3.9c8.1,3.8,20.2-6.4,21.5-7.5c0,0,0.1-0.1,0.1-0.1l1.4-24.1v-3l5.4,2.3l8-1.1
				l18.4-5.5v-18.4L386.4,552.5z"/>
			<path id="XMLID_110_" class="st4" d="M360.7,546.9l-8.6-8.1l-10-2.7c0,0-1.9,0.7-4,1.5c-2.4,1-5.1,2.2-5.5,2.8
				c-0.8,1.3-8.6,6.4-8.6,6.4s-5.1-3-10.5-5.9c-5.5-2.9-15.2,7.6-15.2,7.6s-1.6,5.4-7.4,2.7c-5.9-2.7-18.7,4.7-18.7,4.7v20
				c0,0,1.9,20.5,3.1,24.8c1,3.8,8.4,1.9,10.4,1.3c0.3-1.6,0.5-3.3,0.9-4.8l1.2-15.5c0,0,1.3-0.4,3.1-0.6l0,0
				c4.8-1.3,16.7,1,26.8,3.5c5.5,0.5,10.6,1,13.4,1.2c1.4,0.1,2.3,0.2,2.3,0.2l0.1,1l5.1-6.4c0,0,0-9.7,0-19.7s22.1-12.1,22.6,0
				l1.2-5.4L360.7,546.9z"/>
			<polygon id="XMLID_124_" class="st1" points="370.8,584.8 377,583 369.1,584.1 			"/>
			<path id="XMLID_125_" class="st1" d="M363.7,607.1v-22.2l-1.4,24.1C363.2,607.8,363.7,607.1,363.7,607.1z"/>
			<path id="XMLID_126_" class="st1" d="M286.6,597.3c-0.3,1.6-0.6,3.2-0.9,4.8c0.3-0.1,0.5-0.2,0.5-0.2L286.6,597.3z"/>
			<polygon id="XMLID_127_" class="st1" points="333.8,589.1 333.8,589.1 333.8,589.1 			"/>
			<path id="XMLID_128_" class="st1" d="M340.6,616.6c8.8,6.6,18-3,21.5-7.5C360.9,610.2,348.7,620.4,340.6,616.6z"/>
			<path id="XMLID_129_" class="st1" d="M290.9,581.2L290.9,581.2c1.8-0.2,4.1-0.2,5.9,0.6c1.8,0.9,11.8,2,20.9,2.9
				C307.6,582.2,295.7,579.9,290.9,581.2z"/>
			<path id="XMLID_130_" class="st3" d="M336.6,741.3c-0.5-10.8-2.1-21.5-5.5-31.8c-4.9-14.8-6.1-37.1-5.2-62
				c-5.8,9.7-9.5,24.8-9.5,41.8C316.3,715.2,325.1,736.8,336.6,741.3z"/>
			<path id="XMLID_131_" class="st2" d="M331.1,709.5c3.4,10.2,5.1,21,5.5,31.8c1.4,0.6,2.9,0.9,4.4,0.9c13.7,0,24.7-23.7,24.7-52.9
				s-11.1-52.9-24.7-52.9c-5.7,0-11,4.2-15.2,11.2C325,672.3,326.2,694.7,331.1,709.5z"/>
		</g>
		<g id="XMLID_176_">
			<g id="XMLID_240_">
				<path id="XMLID_254_" class="st5" d="M400.8,598.2l1.1-33.3c0-11.5-14.4-19.1-23.9-19.1c-3.9,0-7.4,1.1-10.4,3.1
					c-2.8-10.1-12.1-17.4-23-17.4c-10.2,0-17.6,3.3-21.2,9.2c-3.3-2.8-7.6-4.4-12.2-4.4c-5.4,0-9.9,1.7-13.1,4.9
					c-1.8,1.8-3.1,3.9-4,6.2c-2.2-1.2-5-1.7-8.2-1.5c-10.3,0.6-17.8,8.6-17.8,19.1v23.9c0,9.1,5.5,16.3,13.2,18.4
					c0.4,23.1,3.5,59.4,15.6,106.8c0.1,0.5,10.4,54.7-1.5,78.4c-1.6,3.3-2,6.9-1.1,10.4c1,3.7,3.4,6.6,6.8,8.3
					c3.1,1.6,7.1,2.9,11.8,4.1c8.1,2,17,3.1,26.3,3.1h3.7c9.3,0,18.2-1,26.3-3.1c4.7-1.2,8.7-2.6,11.8-4.1c3.3-1.7,5.7-4.6,6.8-8.3
					c1-3.4,0.6-7.1-1.1-10.4c-11.6-23.1-2.1-75.3-1.5-78.2C399,659.8,401.1,620.2,400.8,598.2z M277.6,588.8v-23.9
					c0-5.4,3.5-9.3,8.7-9.6c2.7-0.1,4.3-0.2,5.6,5.3c0,1,0,2,0,2.9l0,1.3c0,2.6,2.1,4.8,4.8,4.8s4.8-2.1,4.8-4.8v-4.6
					c0.1-4.5,0.6-9.7,3.2-12.4c1.4-1.4,3.5-2.1,6.3-2.1c5.3,0,9.6,4.3,9.6,9.6c0,2.6,2.1,4.8,4.8,4.8s4.8-2.1,4.8-4.8v-4.8
					c0-2.4,0-9.6,14.3-9.6c7.9,0,14.3,6.4,14.3,14.3v9.6c0,2.6,2.1,4.8,4.8,4.8s4.8-2.1,4.8-4.8c0-5.3,4.3-9.6,9.6-9.6
					c5.8,0,14.3,5,14.3,9.4l-0.3,10.1l-17.5,3c-3.7,0.6-7.6,1.2-12.4,1.7l-4.3,0.5v4.3v18.9c0,5.3-4.3,9.6-9.6,9.6s-9.6-4.3-9.6-9.6
					v-17.8v-4.6l-4.6-0.1c-10.6-0.3-21-1.4-31-3.3l-19.8-3.7l-0.7,4.9c0,0.1,0,0.2,0,0.3c0,0,0,0.1,0,0.1c-0.2,1.7-0.9,7.8-1.1,17.8
					C278.9,595.1,277.6,591.9,277.6,588.8z M378.6,800.2c-0.2,0.7-0.7,1.7-1.9,2.3c-2.5,1.2-5.8,2.4-9.8,3.4
					c-7.4,1.9-15.4,2.8-24,2.8h-3.7c-8.6,0-16.6-0.9-24-2.8c-4-1-7.3-2.2-9.8-3.4c-1.2-0.6-1.7-1.6-1.9-2.3
					c-0.3-1.1-0.2-2.4,0.4-3.5c1.8-3.5,3.1-7.6,4.1-11.9c1.8,0.6,3.8,1.1,6.1,1.7c7.6,1.9,15.9,2.9,24.7,2.9h3.5
					c8.8,0,17.1-1,24.9-2.9c2.4-0.6,4.7-1.2,6.8-1.8c1,4.4,2.4,8.5,4.1,12C378.7,797.8,378.9,799,378.6,800.2z M375.9,711.9
					l-0.1,0.3c-0.4,1.8-6.7,35.5-3.4,63c-2.2,0.7-5.1,1.4-7.6,2c-6.9,1.7-14.4,2.6-22.4,2.6h-3.5c-8,0-15.5-0.9-22.4-2.6
					c-3-0.8-5.2-1.4-6.8-1.9c3.3-27.5-3.1-61.3-3.5-63.3c-17.2-67.4-15.8-112.6-14.7-127l9.8,1.8c9,1.7,18.3,2.8,27.8,3.3v13.2
					c0,10.5,8.6,19.1,19.1,19.1c10.5,0,19.1-8.6,19.1-19.1v-14.6c3.2-0.4,6-0.8,8.7-1.3l14.5-2.5
					C391.7,599.1,393.2,644.2,375.9,711.9z"/>
				<path id="XMLID_241_" class="st5" d="M342.1,631.8c-19,0-31.1,32.6-31.1,55c0,23.8,12.4,59.7,31.1,59.7s31.1-36,31.1-59.7
					C373.2,664.4,361.1,631.8,342.1,631.8z M342.1,737c-9.6,0-21.5-27.7-21.5-50.2c0-21.6,11.3-45.4,21.5-45.4
					c10.3,0,21.5,23.8,21.5,45.4C363.7,709.3,351.8,737,342.1,737z"/>
			</g>
		</g>
		<path id="XMLID_75_" class="st5" d="M356.4,648.2"/>
		<path id="XMLID_111_" class="st1" d="M373.2,502"/>
	</g>
</g>
<g id="XMLID_23_">
	<g id="XMLID_12_">
		<path id="XMLID_20_" class="st1" d="M1166,267.1l-9.2-15.1l-18.2-3.7l-27.7-4.5l-2.8-1.8l-4.3-22.2l-15.6-1.6v175.6l-10.2,7.5
			c0,0-7.8,5.5-9.4,5.5c-1.6,0-43.3-0.7-43.3-0.7l-40.6-0.5v39.7h110.4l15.8-3.7l8.2-9.8c0,0,0.4-8.6,0-10.2
			c-0.4-1.6-8.2-11.1-8.2-11.1l-4.7-7.8v-17.3l24.3-5l16.1-5.1l13.3-6.6l11.4-20.7v-54.2L1166,267.1z M1145.8,318.7l-3.1,23.7
			l-3.9,11.6l-12.4,2.5l-19.6,1.6v-90.2l25.1-1.8l7.5,3.1l6.5,15.8V318.7z"/>
	</g>
	<g id="XMLID_166_">
		<path id="XMLID_138_" class="st0" d="M994.6,445.3v-39.1h-25c0,0-24.1,0-18.3-28.6s1-157.7,1-157.7h-19v181.9
			c0,0-17,11.9-15.7,24.2c1.3,12.3,22.6,19.4,22.6,19.4H994.6z"/>
		<g id="XMLID_149_">
			<path id="XMLID_150_" class="st3" d="M951.5,285.8c0,1.8,0,100.7,0,100.7s-3.3,17.8,14.5,20.9c5.1,0.9,15.8,1.3,28.5,1.4v-123
				H951.5z"/>
			<path id="XMLID_151_" class="st2" d="M1087.3,285.8h-92.8v123c32.2,0.2,77.3-1.4,77.3-1.4s15.7,1.2,16.3-18
				c0.6-19.2,2.1-103.6,2.1-103.6S1089.3,285.8,1087.3,285.8L1087.3,285.8z"/>
			<path id="XMLID_152_" class="st8" d="M994.6,285v-66.9h-43.1v67.7C951.5,285.2,970.6,285,994.6,285z"/>
			<path id="XMLID_153_" class="st4" d="M994.6,285c35.1,0.1,80.7,0.6,92.8,0.8l0.9-67.6h-93.7V285z"/>
			<path id="XMLID_154_" class="st4" d="M994.6,285c-24,0-43.1,0.1-43.1,0.8h43.1V285z"/>
			<path id="XMLID_155_" class="st4" d="M994.6,285.8h92.8l0,0c-12-0.1-57.7-0.7-92.8-0.8V285.8z"/>
			<path id="XMLID_156_" class="st1" d="M1088.2,216.9l0,1.3h11.8c0,0-1-4.2-2.6-13.5c-1.6-9.3-21.6-16.1-21.6-16.1l-19.4-0.6
				c0,0-10.1-7.7-20.8-13.7c-10.7-6.1-32.5-1.2-32.5-1.2l-8.7,4.8v39.9L1088.2,216.9z"/>
			<path id="XMLID_157_" class="st4" d="M994.6,217.7v-39.9l-14.9,8.3c-41.9,0.2-40.9,32.1-40.9,32.1h12.8v-0.1L994.6,217.7z"/>
			<polygon id="XMLID_158_" class="st1" points="994.6,217.7 951.5,218.1 951.5,218.2 994.6,218.2 			"/>
			<polygon id="XMLID_159_" class="st1" points="994.6,217.7 994.6,218.2 1088.2,218.2 1088.2,216.9 			"/>
		</g>
		<g id="XMLID_178_">
			<g id="XMLID_244_">
				<path id="XMLID_251_" class="st5" d="M1129.9,262.3h-18.9v-18.6c0-2.5-2-4.5-4.5-4.5s-4.5,2-4.5,4.5v141.1c0,2.5,2,4.5,4.5,4.5
					s4.5-2,4.5-4.5v-23.4h18.9c11.6,0,21-9.4,21-21v-57.1C1150.9,271.8,1141.5,262.3,1129.9,262.3L1129.9,262.3z M1141.8,340.5
					c0,6.6-5.4,11.9-11.9,11.9h-18.9v-81h18.9c6.6,0,11.9,5.4,11.9,11.9V340.5z"/>
				<path id="XMLID_247_" class="st5" d="M1129.9,238.1h-18.9v-20.3c0-2.5-2-4.5-4.5-4.5h-2.1c-2.2-17.4-17.1-30.9-35.2-30.9
					c-3.2,0-6.3,0.4-9.4,1.3c-10-11.8-24.5-18.5-40.1-18.5c-15.6,0-30.1,6.7-40.1,18.5c-3.1-0.8-6.2-1.3-9.4-1.3
					c-18,0-32.9,13.5-35.2,30.9h-2.1c-2.5,0-4.5,2-4.5,4.5V403c-8.1,4.2-13.3,12.6-13.3,21.9c0,13.6,11,24.6,24.6,24.6h160.2
					c13.6,0,24.6-11,24.6-24.6c0-9.3-5.2-17.7-13.3-21.9v-17.3h18.9c24.9,0,45.2-20.3,45.2-45.2v-57.1
					C1175.1,258.4,1154.8,238.1,1129.9,238.1z M970.1,191.5c3.2,0,6.4,0.6,9.4,1.7c1.9,0.7,4,0.1,5.2-1.5
					c8.3-11.1,21.1-17.5,34.9-17.5s26.6,6.4,34.9,17.5c1.2,1.6,3.3,2.2,5.2,1.5c3-1.1,6.2-1.7,9.4-1.7c13,0,23.8,9.5,26,21.9h-151
					C946.2,200.9,957.1,191.5,970.1,191.5L970.1,191.5z M1166,340.5c0,19.9-16.2,36.1-36.1,36.1h-23.5c-2.5,0-4.5,2-4.5,4.5V406
					c0,1.9,1.2,3.6,3,4.3c6.2,2.2,10.3,8.1,10.3,14.6c0,8.6-7,15.5-15.5,15.5H939.5c-8.6,0-15.5-7-15.5-15.5
					c0-6.5,4.1-12.4,10.3-14.6c1.8-0.6,3-2.4,3-4.3V222.4h164.6v20.3c0,2.5,2,4.5,4.5,4.5h23.5c19.9,0,36.1,16.2,36.1,36.1
					L1166,340.5L1166,340.5z"/>
				<path id="XMLID_246_" class="st5" d="M1033.8,401.5h-64.7c-7.5,0-13.6-6.1-13.6-13.6v-66.5c0-2.5-2-4.5-4.5-4.5s-4.5,2-4.5,4.5
					v66.5c0,12.5,10.2,22.7,22.7,22.7h64.7c2.5,0,4.5-2,4.5-4.5C1038.3,403.5,1036.3,401.5,1033.8,401.5z"/>
				<path id="XMLID_245_" class="st5" d="M1088.2,216.9c-2.5,0-4.5,2-4.5,4.5v59.1H955.4v-60c0-2.5-2-4.5-4.5-4.5s-4.5,2-4.5,4.5
					v108.6c0,2.5,2,4.5,4.5,4.5s4.5-2,4.5-4.5v-39.6h128.3v98.3c0,7.5-6.1,13.6-13.6,13.6h-40.3c-2.5,0-4.5,2-4.5,4.5
					c0,2.5,2,4.5,4.5,4.5h40.3c12.5,0,22.7-10.2,22.7-22.7V221.4C1092.8,218.9,1090.8,216.9,1088.2,216.9z"/>
			</g>
		</g>
		<circle id="XMLID_133_" class="st1" cx="1057.4" cy="309.7" r="4.5"/>
		<circle id="XMLID_136_" class="st1" cx="1035.6" cy="327.3" r="4.5"/>
		<circle id="XMLID_137_" class="st1" cx="1035.6" cy="309.7" r="4.5"/>
		<line id="XMLID_134_" class="st12" x1="1057.4" y1="327.3" x2="1057.4" y2="368.7"/>
	</g>
</g>
</svg>
